<?xml version="1.0" standalone="no"?>
<!DOCTYPE svg PUBLIC "-//W3C//DTD SVG 20010904//EN"
 "http://www.w3.org/TR/2001/REC-SVG-20010904/DTD/svg10.dtd">
<svg version="1.0" xmlns="http://www.w3.org/2000/svg"
 width="1024" height="560" viewBox="185 304 654 356"
 preserveAspectRatio="xMidYMid meet">

<g transform="translate(0.000000,1024.000000) scale(0.100000,-0.100000)"
fill="#000000" stroke="none">
<path d="M3235 7197 c-22 -8 -141 -74 -265 -147 -653 -386 -970 -576 -1011
-606 -27 -19 -57 -55 -75 -86 l-29 -53 0 -870 0 -870 31 -55 c37 -67 56 -80
389 -272 752 -436 921 -531 962 -545 30 -11 66 -14 111 -11 69 5 115 24 232
93 757 447 899 533 928 559 49 44 56 71 60 242 4 154 3 163 -17 183 -12 12
-33 21 -48 21 -18 0 -119 -54 -278 -148 -137 -82 -378 -225 -535 -318 l-285
-169 -65 0 -65 0 -330 194 c-181 107 -397 233 -480 281 -104 60 -157 97 -173
120 l-22 34 2 671 3 671 24 36 c19 27 130 99 510 327 436 261 491 291 529 291
51 0 57 -3 254 -124 84 -51 259 -157 388 -236 129 -78 296 -180 371 -226 209
-129 223 -121 217 118 -3 131 -7 159 -25 193 -11 22 -29 47 -39 56 -11 9 -125
80 -254 157 -420 249 -779 461 -810 477 -43 22 -155 28 -205 12z"/>
<path d="M6829 7197 c-20 -8 -271 -155 -558 -327 -356 -213 -531 -324 -550
-348 -40 -48 -51 -100 -51 -249 0 -144 10 -173 59 -173 18 0 209 110 577 331
582 352 602 362 665 329 98 -51 921 -560 949 -587 l35 -33 3 -208 c1 -114 4
-216 7 -228 8 -36 46 -44 214 -44 145 0 161 2 185 21 l26 20 0 297 c0 292 -1
298 -24 347 -32 69 -69 100 -226 193 -308 181 -932 549 -1028 605 -96 56 -108
60 -175 64 -45 2 -86 -2 -108 -10z"/>
<path d="M5095 5873 c-11 -8 -60 -35 -110 -59 -79 -37 -132 -54 -249 -79 l-29
-6 6 -157 c8 -230 37 -317 143 -432 59 -63 225 -180 257 -180 44 0 206 110
278 188 100 109 128 197 136 419 l6 162 -29 6 c-112 23 -225 64 -297 107 -44
26 -83 48 -86 48 -3 0 -15 -8 -26 -17z m257 -279 c17 -37 4 -63 -98 -200 -107
-143 -152 -194 -170 -194 -36 0 -194 184 -194 225 0 30 25 55 53 55 13 0 45
-23 78 -55 l56 -54 98 122 c53 67 104 125 113 128 26 9 53 -2 64 -27z"/>
<path d="M3433 5810 c-181 -59 -293 -240 -263 -423 21 -134 100 -240 218 -295
109 -51 271 -41 372 23 46 29 112 102 129 143 l13 32 367 0 367 0 -18 73 c-10
39 -21 105 -25 145 l-6 72 -341 0 -342 0 -14 37 c-21 60 -124 155 -195 183
-84 32 -183 36 -262 10z"/>
<path d="M6592 5815 c-103 -29 -195 -103 -241 -194 l-21 -41 -333 0 -332 0
-22 -122 c-12 -68 -25 -133 -28 -145 l-7 -23 365 0 365 0 13 -31 c20 -50 112
-137 176 -167 52 -24 69 -27 168 -27 101 0 114 2 167 29 147 74 226 211 216
375 -8 145 -105 282 -236 332 -73 28 -180 34 -250 14z"/>
<path d="M7334 5130 c-31 -12 -34 -27 -35 -171 -1 -111 1 -133 16 -149 17 -19
33 -20 315 -20 275 0 298 -1 313 -18 24 -26 21 -65 -5 -89 -13 -11 -167 -101
-343 -198 -176 -98 -365 -203 -420 -235 -168 -97 -199 -110 -256 -110 -70 0 8
-43 -969 531 -109 64 -197 109 -212 109 -17 0 -34 -10 -48 -27 -20 -26 -21
-37 -18 -173 4 -191 9 -202 132 -276 259 -157 892 -532 966 -573 81 -44 89
-46 165 -46 l80 0 140 79 c77 44 203 116 280 161 77 45 298 173 490 285 193
112 365 217 384 234 18 17 44 54 57 81 23 49 24 58 24 306 0 238 -1 259 -19
280 l-19 24 -499 2 c-274 1 -507 -2 -519 -7z"/>
</g>
</svg>
